HIERARCHY
ROOT Hips
{
 OFFSET 0.000000 0.000000 0.000000
 CHANNELS 6 Xposition Yposition Zposition Yrotation Xrotation Zrotation
 JOINT Chest
 {
  OFFSET 0.000000 9.585900 0.002600
  CHANNELS 3 Yrotation Xrotation Zrotation
  JOINT Chest2
  {
   OFFSET 0.000000 9.601200 -0.005300
   CHANNELS 3 Yrotation Xrotation Zrotation
   JOINT Chest3
   {
    OFFSET 0.000000 9.561800 0.000000
    CHANNELS 3 Yrotation Xrotation Zrotation
    JOINT Chest4
    {
     OFFSET 0.000000 9.552100 0.000000
     CHANNELS 3 Yrotation Xrotation Zrotation
     JOINT Neck
     {
      OFFSET 0.000000 14.453000 0.000000
      CHANNELS 3 Yrotation Xrotation Zrotation
      JOINT Head
      {
       OFFSET 0.000000 8.936500 -0.011300
       CHANNELS 3 Yrotation Xrotation Zrotation
       End Site
       {
        OFFSET 0.000000 17.073600 -0.006000
       }
      }
     }
     JOINT RightCollar
     {
      OFFSET -2.921100 9.558500 0.000000
      CHANNELS 3 Yrotation Xrotation Zrotation
      JOINT RightShoulder
      {
       OFFSET -13.519700 0.000000 0.000000
       CHANNELS 3 Yrotation Xrotation Zrotation
       JOINT RightElbow
       {
        OFFSET 0.000000 -29.696600 0.000000
        CHANNELS 3 Yrotation Xrotation Zrotation
        JOINT RightWrist
        {
         OFFSET 0.000000 -24.004700 0.000000
         CHANNELS 3 Yrotation Xrotation Zrotation
         End Site
         {
          OFFSET 0.000000 -17.728500 0.000000
         }
        }
       }
      }
     }
     JOINT LeftCollar
     {
      OFFSET 2.921100 9.558500 0.000000
      CHANNELS 3 Yrotation Xrotation Zrotation
      JOINT LeftShoulder
      {
       OFFSET 13.519700 0.000000 0.000000
       CHANNELS 3 Yrotation Xrotation Zrotation
       JOINT LeftElbow
       {
        OFFSET 0.000000 -29.696600 0.000000
        CHANNELS 3 Yrotation Xrotation Zrotation
        JOINT LeftWrist
        {
         OFFSET 0.000000 -24.004700 0.000000
         CHANNELS 3 Yrotation Xrotation Zrotation
         End Site
         {
          OFFSET 0.000000 -17.728500 0.000000
         }
        }
       }
      }
     }
    }
   }
  }
 }
 JOINT RightHip
 {
  OFFSET -7.771700 -0.012900 -0.001300
  CHANNELS 3 Yrotation Xrotation Zrotation
  JOINT RightKnee
  {
   OFFSET 0.000000 -40.869800 0.001200
   CHANNELS 3 Yrotation Xrotation Zrotation
   JOINT RightAnkle
   {
    OFFSET 0.000000 -39.717900 0.002100
    CHANNELS 3 Yrotation Xrotation Zrotation
    JOINT RightToe
    {
     OFFSET 0.000000 -4.965400 11.033500
     CHANNELS 3 Yrotation Xrotation Zrotation
     End Site
     {
      OFFSET 0.000000 -1.423100 5.872300
     }
    }
   }
  }
 }
 JOINT LeftHip
 {
  OFFSET 7.771700 -0.012900 -0.001300
  CHANNELS 3 Yrotation Xrotation Zrotation
  JOINT LeftKnee
  {
   OFFSET 0.000000 -40.869800 0.001200
   CHANNELS 3 Yrotation Xrotation Zrotation
   JOINT LeftAnkle
   {
    OFFSET 0.000000 -39.717900 0.002100
    CHANNELS 3 Yrotation Xrotation Zrotation
    JOINT LeftToe
    {
     OFFSET 0.000000 -4.965400 11.033500
     CHANNELS 3 Yrotation Xrotation Zrotation
     End Site
     {
      OFFSET 0.000000 -1.423100 5.872300
     }
    }
   }
  }
 }
}
MOTION
Frames: 9
Frame Time: 0.008333
0.000000 85.388000 0.000000 0.000000 -5.767877 0.000000 0.000000 11.653817 0.000000 0.000000 -5.885947 0.000000 0.000000 -0.000000 0.000000 0.000000 -0.000000 0.000000 0.000000 12.528835 0.000000 0.000000 0.711642 0.000000 0.000000 -0.000000 0.000000 0.000000 0.000000 -90.000000 0.000000 -2.309062 0.000000 0.000000 2.309062 0.000000 0.000000 -0.000000 0.000000 0.000000 -0.000000 90.000000 0.000000 -2.309062 0.000000 0.000000 2.309062 0.000000 0.000000 8.520406 0.000000 0.000000 1.905762 0.000000 -0.000000 -4.658285 0.000000 0.000000 -0.000000 0.000000 0.000000 8.520406 0.000000 0.000000 1.905762 0.000000 -0.000000 -4.658285 0.000000 0.000000 -0.000000 0.000000
-51.107507 50.564431 0.609215 162.483277 -7.911810 -0.228454 4.084065 7.490670 0.682454 0.195676 0.386926 -0.024177 0.351896 0.678207 -0.033898 3.660883 7.138277 -0.179493 2.170792 17.100502 0.143476 3.956682 -3.870174 -0.440504 2.412836 6.974704 0.663032 -7.380163 -13.942557 -7.728472 -51.891192 -65.218289 72.660182 -1.924181 4.342495 -24.221919 -5.631812 4.095530 0.328561 23.658518 -7.474397 0.413872 62.260627 -77.253512 -83.767662 -2.378880 10.882861 7.916707 -7.706816 -72.323165 1.234107 -118.989122 81.235470 -116.239853 0.741814 -15.847680 -2.079343 -0.331212 0.926843 -0.153064 -6.675803 -76.328084 25.362752 113.966654 78.684960 110.843468 -16.264497 -21.380009 0.196744 -0.377289 -1.168223 -0.163557
-51.107072 50.564325 0.609655 162.487573 -7.913938 -0.235613 4.073542 7.489102 0.684035 0.199334 0.388104 -0.021137 0.351262 0.679524 -0.035738 3.659325 7.137386 -0.176644 2.171923 17.151556 0.153400 3.958509 -3.770307 -0.422367 2.401021 6.977958 0.668329 -7.371603 -13.941791 -7.730065 -51.918780 -65.215024 72.668488 -1.927968 4.328053 -24.225802 -5.627442 4.097047 0.327346 23.660862 -7.458929 0.423058 62.279352 -77.252999 -83.789335 -2.367534 10.871620 7.932801 -7.732171 -72.319828 1.253521 -119.001442 81.235311 -116.248015 0.743539 -15.846541 -2.083724 -0.330556 0.924220 -0.152787 -6.691595 -76.326658 25.376759 113.943030 78.683784 110.819737 -16.250336 -21.372812 0.191628 -0.379393 -1.167033 -0.161116
-51.106864 50.564323 0.609924 162.494597 -7.917390 -0.241752 4.066154 7.491326 0.689093 0.199250 0.388025 -0.021073 0.338495 0.672490 -0.033605 3.664276 7.139075 -0.175470 2.175049 17.206678 0.162074 3.964036 -3.667448 -0.408778 2.395834 6.984153 0.671756 -7.389672 -13.936733 -7.716073 -51.920921 -65.225153 72.673310 -1.944384 4.302103 -24.265334 -5.623692 4.101153 0.321499 23.661157 -7.439783 0.431266 62.247397 -77.252901 -83.758579 -2.353718 10.849482 7.969076 -7.766141 -72.317226 1.274218 -119.040258 81.237815 -116.284555 0.749295 -15.840169 -2.086552 -0.334950 0.915945 -0.156060 -6.675484 -76.324713 25.369425 113.898612 78.677814 110.773964 -16.273162 -21.363840 0.195998 -0.363462 -1.164813 -0.152886
-51.106994 50.564526 0.609194 162.495616 -7.926619 -0.243637 4.058241 7.497005 0.692107 0.198789 0.387826 -0.020840 0.341767 0.674789 -0.034198 3.640776 7.135581 -0.167050 2.185170 17.313846 0.175222 3.982400 -3.618523 -0.418126 2.416962 6.989632 0.662994 -7.418162 -13.934150 -7.696383 -51.899514 -65.239473 72.669453 -1.952752 4.296292 -24.279677 -5.608200 4.111521 0.311337 23.667996 -7.427624 0.428354 62.242102 -77.256647 -83.751400 -2.344962 10.836114 8.005700 -7.769470 -72.307126 1.276186 -119.054550 81.236682 -116.296297 0.744055 -15.842190 -2.084842 -0.331737 0.916156 -0.154869 -6.674930 -76.315618 25.370914 113.894888 78.678090 110.769822 -16.281212 -21.353011 0.194360 -0.357985 -1.163837 -0.149297
-51.108295 50.564725 0.608739 162.495409 -7.932607 -0.239716 4.050519 7.501878 0.689863 0.198213 0.387728 -0.020739 0.345329 0.675586 -0.035347 3.641055 7.136414 -0.167372 2.182141 17.364085 0.184773 3.995685 -3.523110 -0.408160 2.417158 6.990582 0.666197 -7.435522 -13.932431 -7.684099 -51.897539 -65.250680 72.673799 -1.963915 4.291556 -24.291991 -5.605834 4.112332 0.310569 23.668475 -7.417832 0.429004 62.172836 -77.254515 -83.681054 -2.338114 10.815537 8.036460 -7.753499 -72.298022 1.257701 -119.048242 81.240245 -116.286998 0.741368 -15.852418 -2.084261 -0.330083 0.925910 -0.155083 -6.654034 -76.310223 25.353754 113.899776 78.683293 110.774576 -16.313166 -21.341118 0.202618 -0.369032 -1.154464 -0.153203
-51.109440 50.564975 0.608648 162.493164 -7.937121 -0.237949 4.044204 7.504411 0.688658 0.186774 0.386622 -0.020019 0.355599 0.676506 -0.035844 3.634276 7.137294 -0.166260 2.191460 17.402478 0.188015 4.009746 -3.419990 -0.395897 2.424441 6.993575 0.664785 -7.446594 -13.929864 -7.672629 -51.918480 -65.256177 72.687512 -1.969166 4.291448 -24.292871 -5.593508 4.115840 0.302060 23.671960 -7.418579 0.431857 62.109101 -77.249002 -83.616669 -2.331110 10.806217 8.069865 -7.746450 -72.291749 1.250107 -119.024764 81.236376 -116.259092 0.742802 -15.856015 -2.087100 -0.323671 0.929853 -0.153634 -6.644198 -76.306705 25.347286 113.905966 78.686443 110.780099 -16.334781 -21.327865 0.209986 -0.397914 -1.159326 -0.159001
-51.109380 50.565379 0.608265 162.489335 -7.945783 -0.243440 4.037836 7.511282 0.693211 0.187395 0.387403 -0.017286 0.353702 0.675317 -0.038287 3.608100 7.139347 -0.157610 2.223592 17.414690 0.176780 4.021566 -3.299847 -0.378159 2.447158 6.995916 0.656628 -7.447043 -13.928503 -7.668651 -51.953252 -65.246015 72.701859 -1.957638 4.293708 -24.278495 -5.581860 4.125989 0.290739 23.691466 -7.420183 0.423603 62.118041 -77.251378 -83.618713 -2.319504 10.817471 8.097901 -7.755629 -72.280965 1.264426 -119.018310 81.236480 -116.251896 0.745813 -15.853984 -2.086922 -0.326478 0.928243 -0.153465 -6.657205 -76.294874 25.363684 113.894645 78.686787 110.766523 -16.331033 -21.325956 0.209489 -0.415546 -1.158396 -0.160392
-51.109863 50.565894 0.607015 162.479802 -7.958772 -0.244625 4.038353 7.524753 0.699467 0.189249 0.385923 -0.020132 0.339558 0.675332 -0.034088 3.610070 7.141542 -0.158309 2.234030 17.461875 0.182142 4.039606 -3.223309 -0.376817 2.451239 6.999234 0.655426 -7.436967 -13.931655 -7.672870 -51.966988 -65.238229 72.702050 -1.965067 4.284870 -24.280110 -5.577819 4.131242 0.280688 23.688257 -7.410270 0.420841 62.089211 -77.255067 -83.575891 -2.311244 10.810786 8.128443 -7.743641 -72.267664 1.263158 -119.016960 81.236225 -116.249393 0.746400 -15.851069 -2.087455 -0.327440 0.925622 -0.152516 -6.659894 -76.280141 25.370168 113.916585 78.687332 110.784072 -16.310162 -21.322130 0.209822 -0.373562 -1.157100 -0.159573
